<svg width="111" height="33" viewBox="0 0 111 33" fill="none" xmlns="http://www.w3.org/2000/svg">
<path d="M14.0274 10.1341C14.0271 10.1252 14.0286 10.1164 14.0318 10.1082C14.0349 10.0999 14.0397 10.0924 14.0458 10.086C14.0519 10.0797 14.0592 10.0746 14.0673 10.0712C14.0754 10.0677 14.0841 10.066 14.0928 10.066L16.7871 10.063C16.8012 10.063 16.8147 10.0679 16.8254 10.0769C16.8361 10.0858 16.8433 10.0983 16.8456 10.112C16.9864 10.9201 17.4175 11.4407 18.1387 11.6738C19.0259 11.9603 19.8219 11.8471 20.5266 11.3342C21.3537 10.7341 21.4608 9.60214 20.5931 8.96502C20.4489 8.85883 20.1994 8.74263 19.8444 8.6164C19.295 8.42106 18.6425 8.42607 18.0693 8.28682C17.5239 8.15392 17.0797 8.00633 16.7366 7.84404C15.8024 7.40026 15.0151 6.683 14.6541 5.66019C14.0502 3.95319 14.5648 2.25019 15.9571 1.08313C16.6612 0.493424 17.4624 0.145811 18.3609 0.0402918C20.2559 -0.185105 22.0309 0.536166 23.0553 2.17906C23.4044 2.73871 23.5958 3.41023 23.6295 4.19361C23.6299 4.20202 23.6286 4.21042 23.6257 4.2183C23.6228 4.22619 23.6183 4.23339 23.6126 4.23948C23.6068 4.24557 23.5999 4.25042 23.5922 4.25373C23.5846 4.25703 23.5763 4.25873 23.568 4.25872L20.8578 4.26173C20.8439 4.2617 20.8305 4.25674 20.8199 4.24774C20.8094 4.23874 20.8024 4.2263 20.8003 4.21264C20.7005 3.61893 20.3974 3.22257 19.891 3.02355C19.3892 2.82787 18.8798 2.80283 18.3628 2.94842C17.8165 3.10169 17.2988 3.56049 17.2572 4.14853C17.1997 4.96697 17.9602 5.37369 18.6613 5.4939C19.4044 5.62146 19.8761 5.70494 20.0764 5.74434C20.9484 5.91464 21.7503 6.28062 22.4822 6.84228C24.285 8.22571 24.5249 10.8664 23.1823 12.6445C22.383 13.7024 21.3547 14.3465 20.0972 14.5769C17.757 15.0047 15.5624 14.082 14.4468 11.9252C14.1877 11.4257 14.0479 10.8286 14.0274 10.1341Z" fill="white"/>
<path d="M25.2373 10.1338C25.2371 10.125 25.2385 10.1163 25.2416 10.1081C25.2448 10.0999 25.2494 10.0924 25.2554 10.0861C25.2614 10.0797 25.2686 10.0747 25.2766 10.0711C25.2845 10.0676 25.2931 10.0658 25.3018 10.0656L27.9971 10.0626C28.0113 10.0627 28.025 10.0677 28.0357 10.0769C28.0464 10.0861 28.0535 10.0988 28.0556 10.1127C28.1964 10.9208 28.6274 11.4414 29.3487 11.6745C30.2359 11.9603 31.0319 11.8471 31.7366 11.3349C32.5646 10.7348 32.6707 9.60283 31.804 8.9657C31.6592 8.85952 31.4093 8.74331 31.0543 8.61709C30.505 8.42074 29.8525 8.42675 29.2793 8.28651C28.7345 8.1536 28.2903 8.00601 27.9465 7.84373C27.0124 7.39994 26.225 6.68368 25.8641 5.65988C25.2601 3.95187 25.7748 2.24987 27.1671 1.08281C27.8711 0.493107 28.6727 0.145494 29.5718 0.039975C31.4669 -0.18442 33.2419 0.536851 34.2663 2.17975C34.6153 2.73873 34.8067 3.40991 34.8404 4.19329C34.8408 4.2017 34.8395 4.2101 34.8366 4.21799C34.8337 4.22587 34.8293 4.23308 34.8235 4.23917C34.8178 4.24526 34.8109 4.2501 34.8032 4.25341C34.7955 4.25672 34.7873 4.25842 34.779 4.25841L32.0688 4.26141C32.0549 4.26138 32.0414 4.25642 32.0309 4.24742C32.0204 4.23843 32.0134 4.22598 32.0113 4.21233C31.9114 3.61861 31.608 3.22225 31.1009 3.02323C30.5998 2.82755 30.0905 2.80251 29.5728 2.9481C29.0264 3.10137 28.5098 3.56018 28.4671 4.14821C28.4096 4.96666 29.1712 5.37337 29.8713 5.49459C30.6144 5.62148 31.0861 5.70462 31.2864 5.74403C32.159 5.91499 32.9613 6.28131 33.6931 6.84296C35.4949 8.2264 35.7349 10.8671 34.3922 12.6452C33.5929 13.7031 32.5646 14.3472 31.3072 14.5776C28.9669 15.0043 26.7724 14.0817 25.6558 11.9259C25.3973 11.4257 25.2578 10.8283 25.2373 10.1338Z" fill="white"/>
<path d="M36.9212 7.33784C36.9219 2.6636 36.9229 0.320137 36.9242 0.307448C36.9252 0.298594 36.9294 0.290419 36.936 0.2845C36.9426 0.278581 36.9511 0.275336 36.9599 0.275391L46.0186 0.276393C46.0299 0.276393 46.0407 0.280931 46.0487 0.28901C46.0567 0.297088 46.0612 0.308045 46.0612 0.319469V3.09937C46.061 3.10796 46.0575 3.11611 46.0516 3.1221C46.0457 3.12808 46.0378 3.13143 46.0295 3.13142H39.8208C39.8048 3.13142 39.7894 3.13786 39.778 3.14932C39.7667 3.16078 39.7603 3.17632 39.7603 3.19253V5.84921C39.7603 5.85724 39.7618 5.86518 39.7648 5.8726C39.7678 5.88001 39.7722 5.88675 39.7777 5.89242C39.7833 5.8981 39.7898 5.9026 39.797 5.90567C39.8043 5.90874 39.812 5.91032 39.8198 5.91032L44.6095 5.91132C44.6231 5.91132 44.6363 5.91692 44.6459 5.92687C44.6556 5.93683 44.661 5.95034 44.661 5.96442C44.6604 6.38249 44.66 6.84063 44.66 7.33884C44.6594 7.83705 44.6594 8.29519 44.66 8.71326C44.66 8.72734 44.6546 8.74084 44.6449 8.7508C44.6353 8.76076 44.6221 8.76635 44.6085 8.76635L39.8198 8.76535C39.812 8.76535 39.8043 8.76693 39.797 8.77C39.7898 8.77307 39.7833 8.77758 39.7777 8.78325C39.7722 8.78892 39.7678 8.79566 39.7648 8.80307C39.7618 8.81049 39.7603 8.81843 39.7603 8.82646L39.7593 11.4831C39.7593 11.4993 39.7657 11.5149 39.777 11.5264C39.7884 11.5378 39.8038 11.5442 39.8198 11.5442L46.0285 11.5463C46.0369 11.5463 46.045 11.5497 46.0509 11.5559C46.0569 11.5621 46.0602 11.5705 46.0602 11.5793L46.0593 14.3582C46.0593 14.3696 46.0548 14.3806 46.0468 14.3887C46.0388 14.3967 46.0279 14.4013 46.0166 14.4013L36.9579 14.4003C36.9491 14.4003 36.9406 14.3971 36.934 14.3912C36.9274 14.3853 36.9232 14.3771 36.9222 14.3682C36.9209 14.3549 36.9206 12.0114 36.9212 7.33784Z" fill="white"/>
<path d="M96.0943 7.33298C96.0943 7.83119 96.0946 8.28933 96.0953 8.7074C96.0953 8.72148 96.0898 8.73499 96.0802 8.74494C96.0705 8.7549 96.0574 8.76049 96.0437 8.76049H91.2541C91.2383 8.76049 91.2231 8.76693 91.212 8.77839C91.2008 8.78985 91.1946 8.8054 91.1946 8.8216V11.4793C91.1946 11.4873 91.1961 11.4953 91.1992 11.5027C91.2022 11.5101 91.2067 11.5168 91.2123 11.5225C91.2179 11.5282 91.2246 11.5327 91.2319 11.5357C91.2392 11.5388 91.2471 11.5404 91.2551 11.5404H97.4638C97.4722 11.5404 97.4802 11.5439 97.4862 11.5501C97.4921 11.5563 97.4955 11.5647 97.4955 11.5735V14.3533C97.4955 14.3648 97.491 14.3757 97.483 14.3838C97.475 14.3919 97.4642 14.3964 97.4528 14.3964H88.3932C88.3843 14.3965 88.3758 14.3932 88.3692 14.3873C88.3626 14.3814 88.3584 14.3732 88.3575 14.3644C88.3561 14.351 88.3555 12.0072 88.3555 7.33298C88.3555 2.65874 88.3561 0.315279 88.3575 0.302589C88.3584 0.293735 88.3626 0.285561 88.3692 0.279642C88.3758 0.273723 88.3843 0.270478 88.3932 0.270533L97.4528 0.269531C97.4642 0.269531 97.475 0.27407 97.483 0.282148C97.491 0.290226 97.4955 0.301183 97.4955 0.312607V3.09251C97.4955 3.10127 97.4921 3.10968 97.4862 3.11588C97.4802 3.12208 97.4722 3.12556 97.4638 3.12556H91.2551C91.2471 3.12556 91.2392 3.12714 91.2319 3.13022C91.2246 3.13329 91.2179 3.13779 91.2123 3.14346C91.2067 3.14914 91.2022 3.15587 91.1992 3.16329C91.1961 3.1707 91.1946 3.17865 91.1946 3.18667V5.84436C91.1946 5.86056 91.2008 5.8761 91.212 5.88756C91.2231 5.89902 91.2383 5.90546 91.2541 5.90546H96.0437C96.0574 5.90546 96.0705 5.91106 96.0802 5.92101C96.0898 5.93097 96.0953 5.94448 96.0953 5.95856C96.0946 6.37663 96.0943 6.83477 96.0943 7.33298Z" fill="white"/>
<path d="M6.96476 10.8876C6.01807 10.8876 5.20161 10.8873 4.51539 10.8866C4.48986 10.8867 4.46498 10.8945 4.44395 10.909C4.42292 10.9235 4.4067 10.9439 4.39739 10.9677L3.05767 14.3657C3.05297 14.3773 3.04508 14.3872 3.03501 14.3941C3.02495 14.4011 3.01316 14.4048 3.00115 14.4048H0.035136C0.0293834 14.4047 0.0237365 14.4032 0.0186792 14.4004C0.0136218 14.3977 0.00930371 14.3937 0.00608992 14.3889C0.00287614 14.3841 0.000862458 14.3785 0.000221996 14.3727C-0.000418465 14.367 0.000331691 14.3611 0.00240999 14.3557L5.52886 0.332989C5.53367 0.321713 5.54159 0.312104 5.55163 0.305341C5.56167 0.298579 5.5734 0.294958 5.58538 0.294922C6.02567 0.29559 6.48579 0.295924 6.96575 0.295924C7.44505 0.295924 7.90484 0.29559 8.34513 0.294922C8.35722 0.295043 8.36903 0.298812 8.37908 0.305761C8.38914 0.312709 8.39699 0.322528 8.40166 0.333991L13.9271 14.3567C13.9292 14.3621 13.9299 14.368 13.9293 14.3737C13.9287 14.3795 13.9266 14.3851 13.9234 14.3899C13.9202 14.3947 13.9159 14.3987 13.9108 14.4014C13.9058 14.4042 13.9001 14.4057 13.8944 14.4058L10.9274 14.4048C10.9154 14.4048 10.9036 14.4011 10.8935 14.3941C10.8835 14.3872 10.8756 14.3773 10.8709 14.3657L9.53213 10.9677C9.5226 10.9439 9.50617 10.9236 9.48495 10.9093C9.46374 10.895 9.43872 10.8875 9.41313 10.8876C8.72757 10.8876 7.91145 10.8876 6.96476 10.8876ZM5.58141 7.98547C5.5795 7.99043 5.57879 7.99577 5.57936 8.00106C5.57992 8.00635 5.58175 8.01142 5.58467 8.01584C5.58759 8.02027 5.59152 8.02391 5.59613 8.02647C5.60074 8.02904 5.6059 8.03043 5.61116 8.03055L8.30745 8.04458C8.31267 8.04456 8.31782 8.04328 8.32246 8.04084C8.32709 8.0384 8.33108 8.03488 8.33409 8.03056C8.3371 8.02624 8.33904 8.02126 8.33976 8.01603C8.34047 8.0108 8.33993 8.00548 8.33819 8.0005L7.00839 4.53339C7.00619 4.52698 7.0021 4.52141 6.99666 4.51744C6.99123 4.51346 6.98471 4.51127 6.978 4.51116C6.97129 4.51105 6.9647 4.51303 6.95914 4.51682C6.95358 4.52062 6.94931 4.52606 6.94691 4.53239L5.58141 7.98547Z" fill="white"/>
<path d="M51.1654 6.10812C51.1635 6.11813 51.1618 6.14051 51.1605 6.17523C51.1578 6.23734 51.1572 8.96214 51.1585 14.3496C51.1585 14.356 51.1573 14.3622 51.1549 14.368C51.1525 14.3739 51.149 14.3792 51.1445 14.3836C51.1401 14.3881 51.1349 14.3916 51.1291 14.3941C51.1233 14.3965 51.1171 14.3977 51.1109 14.3977H48.3571C48.3458 14.3977 48.3349 14.3932 48.3269 14.3851C48.3189 14.377 48.3145 14.3661 48.3145 14.3546V0.334943C48.3145 0.329944 48.3154 0.324993 48.3173 0.320375C48.3192 0.315756 48.322 0.31156 48.3255 0.308025C48.329 0.30449 48.3331 0.301686 48.3377 0.299773C48.3423 0.29786 48.3472 0.296876 48.3521 0.296876H51.8179C51.8344 0.296815 51.8505 0.30173 51.8643 0.311C51.878 0.32027 51.8888 0.333481 51.8953 0.348967L54.9208 7.66286C54.9335 7.69371 54.9339 7.72853 54.9218 7.76003L53.4641 11.5116C53.4626 11.5153 53.46 11.5185 53.4568 11.5207C53.4535 11.5229 53.4497 11.5241 53.4457 11.5241C53.4418 11.5241 53.4379 11.5229 53.4347 11.5207C53.4314 11.5185 53.4289 11.5153 53.4274 11.5116L51.1912 6.10511C51.1899 6.10259 51.1879 6.10052 51.1854 6.09918C51.1829 6.09785 51.1801 6.09731 51.1773 6.09763C51.1745 6.09796 51.1719 6.09913 51.1698 6.10101C51.1676 6.10288 51.1661 6.10536 51.1654 6.10812Z" fill="white"/>
<path d="M60.9199 6.0981C60.9196 6.09393 60.918 6.08998 60.9152 6.08685C60.9125 6.08372 60.9088 6.0816 60.9047 6.0808C60.9006 6.08 60.8964 6.08058 60.8927 6.08244C60.889 6.08429 60.886 6.08733 60.8842 6.09108L57.4789 14.3536C57.4736 14.3666 57.4646 14.3778 57.4529 14.3856C57.4413 14.3934 57.4275 14.3977 57.4134 14.3977H54.4792C54.4713 14.3977 54.4635 14.3957 54.4566 14.3919C54.4497 14.3881 54.4438 14.3827 54.4395 14.376C54.4351 14.3694 54.4325 14.3617 54.4318 14.3538C54.4311 14.3459 54.4324 14.3379 54.4355 14.3306L60.197 0.348967C60.2031 0.333626 60.2137 0.320476 60.2275 0.311198C60.2413 0.301919 60.2576 0.296933 60.2743 0.296875H63.6955C63.7124 0.296875 63.7285 0.303524 63.7404 0.31536C63.7523 0.327195 63.759 0.343248 63.759 0.359986V14.3637C63.759 14.3681 63.7581 14.3726 63.7564 14.3767C63.7547 14.3808 63.7522 14.3846 63.7491 14.3877C63.746 14.3909 63.7423 14.3934 63.7382 14.3951C63.7341 14.3968 63.7297 14.3977 63.7253 14.3977H60.9586C60.9483 14.3977 60.9385 14.3936 60.9312 14.3863C60.924 14.379 60.9199 14.369 60.9199 14.3587V6.0981Z" fill="white"/>
<path d="M66.6326 0.301848C67.0723 0.301848 68.0206 0.297841 69.4777 0.289827C70.7913 0.283149 71.6058 0.320214 71.9211 0.401023C74.422 1.04115 75.7141 3.69783 74.6362 6.08905C74.5678 6.24031 74.4399 6.41863 74.3606 6.57891C74.3536 6.59321 74.3512 6.6094 74.3539 6.62522C74.3566 6.64104 74.3641 6.65567 74.3754 6.66706C74.6227 6.91817 74.7744 7.07545 74.8306 7.1389C75.2292 7.59169 75.5102 8.11562 75.6735 8.71067C76.3419 11.1349 75.017 13.6313 72.5805 14.2635C72.1812 14.3676 71.6514 14.4164 70.9909 14.4097C70.0925 14.401 68.6394 14.3997 66.6317 14.4057C66.6177 14.4057 66.6043 14.4001 66.5945 14.3902C66.5846 14.3802 66.5791 14.3667 66.5791 14.3526L66.5821 0.352938C66.5821 0.339389 66.5874 0.326394 66.5969 0.316812C66.6064 0.307231 66.6192 0.301848 66.6326 0.301848ZM69.4152 3.21097L69.4231 5.50502C69.4231 5.5199 69.429 5.53416 69.4394 5.54468C69.4498 5.55521 69.464 5.56112 69.4787 5.56112L70.9602 5.55511C71.2842 5.55401 71.5945 5.42675 71.8229 5.20131C72.0512 4.97587 72.179 4.67072 72.1779 4.35299V4.34297C72.1774 4.18562 72.1453 4.02991 72.0835 3.88475C72.0216 3.73958 71.9312 3.60779 71.8174 3.4969C71.7035 3.38602 71.5686 3.29821 71.4201 3.23849C71.2717 3.17878 71.1127 3.14832 70.9523 3.14887L69.4707 3.15488C69.456 3.15488 69.4419 3.16079 69.4315 3.17131C69.4211 3.18183 69.4152 3.1961 69.4152 3.21097ZM69.4122 8.4472L69.4221 11.5146C69.4221 11.5236 69.4257 11.5323 69.432 11.5387C69.4384 11.5451 69.4469 11.5487 69.4559 11.5487L71.453 11.5417C71.8696 11.5403 72.2686 11.3743 72.5623 11.0801C72.8559 10.7859 73.0201 10.3876 73.0189 9.97289V9.96488C73.0182 9.75951 72.9769 9.55629 72.8974 9.36681C72.8179 9.17733 72.7016 9.00531 72.5553 8.86057C72.409 8.71582 72.2355 8.60119 72.0446 8.52322C71.8538 8.44525 71.6494 8.40546 71.4431 8.40613L69.4459 8.41314C69.437 8.41314 69.4284 8.41673 69.4221 8.42312C69.4158 8.42951 69.4122 8.43817 69.4122 8.4472Z" fill="white"/>
<path d="M80.4484 0.335944V11.5026C80.4484 11.513 80.4525 11.5229 80.4598 11.5302C80.467 11.5376 80.4768 11.5417 80.4871 11.5417H86.7127C86.7229 11.5417 86.7328 11.5458 86.74 11.5531C86.7473 11.5605 86.7513 11.5704 86.7513 11.5808V14.3587C86.7513 14.369 86.7473 14.379 86.74 14.3863C86.7328 14.3936 86.7229 14.3977 86.7127 14.3977H77.65C77.6397 14.3977 77.6299 14.3936 77.6227 14.3863C77.6154 14.379 77.6113 14.369 77.6113 14.3587V0.335944C77.6113 0.325582 77.6154 0.315645 77.6227 0.308318C77.6299 0.300991 77.6397 0.296875 77.65 0.296875H80.4098C80.42 0.296875 80.4299 0.300991 80.4371 0.308318C80.4444 0.315645 80.4484 0.325582 80.4484 0.335944Z" fill="white"/>
<path d="M110.848 6.59537V8.08099C110.745 8.94718 110.546 9.68348 110.252 10.2899C109.02 12.8324 106.667 14.3841 103.857 14.3971C102.53 14.4038 101.13 14.4038 99.6576 14.3971C99.6513 14.3971 99.6452 14.3946 99.6408 14.3901C99.6363 14.3856 99.6338 14.3795 99.6338 14.3731V0.337346C99.6338 0.332741 99.6347 0.328182 99.6364 0.323928C99.6382 0.319674 99.6407 0.315809 99.644 0.312553C99.6472 0.309297 99.651 0.306715 99.6552 0.304953C99.6594 0.303191 99.6639 0.302284 99.6685 0.302284C100.917 0.30028 102.338 0.30028 103.932 0.302284C105.315 0.304287 106.578 0.696312 107.721 1.47836C109.522 2.7112 110.565 4.41687 110.848 6.59537ZM102.475 3.18637V11.511C102.475 11.5209 102.479 11.5303 102.486 11.5372C102.492 11.5442 102.502 11.5481 102.512 11.5481H103.824C104.941 11.5481 106.012 11.1067 106.801 10.3211C107.591 9.5354 108.034 8.46981 108.034 7.35872V7.33868C108.034 6.22759 107.591 5.162 106.801 4.37634C106.012 3.59068 104.941 3.1493 103.824 3.1493H102.512C102.502 3.1493 102.492 3.15321 102.486 3.16016C102.479 3.16711 102.475 3.17654 102.475 3.18637Z" fill="white"/>
<path d="M63.3086 27.4466H66.0029C66.0171 27.4467 66.0308 27.4517 66.0415 27.4609C66.0523 27.4701 66.0593 27.4828 66.0615 27.4967C66.2016 28.3048 66.6323 28.8257 67.3536 29.0595C68.2401 29.3467 69.0361 29.2345 69.7414 28.7229C70.5695 28.1238 70.6776 26.9918 69.8109 26.3537C69.6668 26.2475 69.4172 26.131 69.0622 26.0041C68.5128 25.8078 67.8603 25.8128 67.2871 25.6725C66.7424 25.5389 66.2985 25.3907 65.9553 25.2277C65.0212 24.7829 64.2348 24.0657 63.8749 23.0419C63.2729 21.3339 63.7896 19.6319 65.1829 18.4668C65.8876 17.8778 66.6895 17.5308 67.5886 17.426C69.4836 17.2036 71.2577 17.9269 72.2801 19.5708C72.6285 20.1304 72.8192 20.8019 72.8522 21.5853C72.8526 21.5937 72.8514 21.6021 72.8484 21.61C72.8455 21.6179 72.8411 21.6251 72.8353 21.6312C72.8296 21.6373 72.8227 21.6421 72.815 21.6454C72.8073 21.6487 72.7991 21.6504 72.7908 21.6504H70.0806C70.0667 21.6504 70.0532 21.6454 70.0427 21.6364C70.0322 21.6274 70.0252 21.615 70.0231 21.6013C69.9239 21.0076 69.6211 20.6109 69.1147 20.4112C68.6136 20.2149 68.1042 20.1892 67.5866 20.3341C67.0402 20.4874 66.5226 20.9452 66.4799 21.5332C66.4214 22.3517 67.182 22.7594 67.8821 22.8806C68.6252 23.0088 69.0969 23.0926 69.2972 23.132C70.1692 23.3037 70.9708 23.6707 71.7019 24.233C73.5028 25.6184 73.7398 28.2591 72.3951 30.0362C71.5952 31.0927 70.5662 31.7355 69.3081 31.9646C66.9678 32.3893 64.7743 31.4647 63.6607 29.3069C63.4022 28.8067 63.263 28.2093 63.2432 27.5148C63.2429 27.5059 63.2444 27.4971 63.2476 27.4888C63.2508 27.4806 63.2555 27.4731 63.2616 27.4667C63.2678 27.4604 63.2751 27.4553 63.2831 27.4519C63.2912 27.4484 63.2999 27.4466 63.3086 27.4466Z" fill="white"/>
<path d="M0.470497 17.6848C0.910788 17.6848 1.85979 17.6808 3.31751 17.6728C4.63177 17.6654 5.44658 17.7022 5.76192 17.783C8.26484 18.4231 9.55794 21.0818 8.48002 23.474C8.4116 23.6253 8.28269 23.8036 8.20336 23.9639C8.19637 23.9782 8.19405 23.9944 8.19671 24.0102C8.19938 24.026 8.20691 24.0406 8.21823 24.052C8.46614 24.3031 8.6182 24.4604 8.67439 24.5239C9.07303 24.9773 9.35433 25.5016 9.51828 26.0966C10.1866 28.5219 8.86181 31.0203 6.42434 31.6534C6.02504 31.7576 5.49484 31.8064 4.83374 31.7997C3.93465 31.791 2.48089 31.79 0.472479 31.7967C0.45854 31.7967 0.445173 31.7911 0.435316 31.7811C0.42546 31.7712 0.419922 31.7577 0.419922 31.7436V17.7359C0.419922 17.7224 0.425251 17.7094 0.434735 17.6998C0.44422 17.6902 0.457084 17.6848 0.470497 17.6848ZM3.26793 20.5599L3.25603 22.924C3.25603 22.9284 3.25688 22.9327 3.25852 22.9367C3.26017 22.9407 3.26258 22.9444 3.26562 22.9474C3.26865 22.9505 3.27226 22.9529 3.27623 22.9546C3.2802 22.9562 3.28446 22.9571 3.28875 22.9571L4.75342 22.9651C4.91884 22.966 5.0828 22.9358 5.23592 22.8764C5.38904 22.817 5.52834 22.7295 5.64584 22.6189C5.76334 22.5083 5.85676 22.3767 5.92074 22.2318C5.98473 22.0868 6.01804 21.9313 6.01876 21.774V21.738C6.02023 21.4205 5.889 21.1155 5.65395 20.8899C5.4189 20.6642 5.09926 20.5365 4.76532 20.5348L3.30066 20.5268C3.29198 20.5268 3.28365 20.5303 3.27751 20.5365C3.27138 20.5427 3.26793 20.5511 3.26793 20.5599ZM3.26 25.8232V28.9126C3.26 28.9216 3.26355 28.9303 3.26987 28.9367C3.2762 28.9431 3.28477 28.9467 3.29371 28.9467H5.21652C5.65126 28.9467 6.06819 28.7812 6.3756 28.4866C6.68301 28.192 6.85571 27.7925 6.85571 27.3759V27.3599C6.85571 26.9433 6.68301 26.5437 6.3756 26.2492C6.06819 25.9546 5.65126 25.7891 5.21652 25.7891H3.29371C3.28477 25.7891 3.2762 25.7927 3.26987 25.7991C3.26355 25.8055 3.26 25.8141 3.26 25.8232Z" fill="white"/>
<path d="M14.4287 26.9884C14.425 26.9835 14.42 26.98 14.4142 26.9782C14.4084 26.9765 14.4022 26.9766 14.3965 26.9786C14.3908 26.9806 14.3859 26.9844 14.3824 26.9893C14.3789 26.9943 14.3771 27.0003 14.3772 27.0064V31.7427C14.3772 31.7579 14.3711 31.7724 14.3603 31.7831C14.3495 31.7938 14.3349 31.7998 14.3196 31.7998H11.5688C11.5609 31.7998 11.5534 31.7966 11.5478 31.7907C11.5422 31.7849 11.5391 31.777 11.5391 31.7688V17.7441C11.5391 17.736 11.5406 17.7281 11.5437 17.7207C11.5467 17.7133 11.5512 17.7065 11.5568 17.7009C11.5624 17.6952 11.5691 17.6907 11.5764 17.6876C11.5837 17.6845 11.5916 17.683 11.5996 17.683C13.9967 17.677 15.6299 17.6726 16.4993 17.6699C17.9345 17.6659 19.1252 18.2089 20.0712 19.2988C21.2493 20.6572 21.4744 22.6357 20.7277 24.2215C20.1079 25.5398 19.0042 26.2501 17.5851 26.4194C17.5785 26.4201 17.5721 26.4226 17.5667 26.4266C17.5614 26.4307 17.5571 26.4361 17.5545 26.4423C17.5519 26.4485 17.5509 26.4553 17.5518 26.462C17.5526 26.4688 17.5553 26.4751 17.5593 26.4805L21.4714 31.7508C21.4749 31.7553 21.4771 31.7608 21.4777 31.7665C21.4783 31.7722 21.4773 31.778 21.4748 31.7832C21.4723 31.7884 21.4685 31.7928 21.4637 31.7959C21.4589 31.7991 21.4533 31.8008 21.4476 31.8008H18.0453C18.0317 31.8008 18.0182 31.7976 18.006 31.7913C17.9938 31.785 17.9831 31.776 17.9748 31.7648L14.4287 26.9884ZM14.3752 20.5681V23.966C14.3752 23.9772 14.3796 23.9879 14.3874 23.9958C14.3952 24.0037 14.4058 24.0081 14.4168 24.0081H16.5568C17.0239 24.0081 17.4718 23.8248 17.8021 23.4985C18.1324 23.1721 18.318 22.7295 18.318 22.268V22.266C18.318 22.0375 18.2724 21.8113 18.1839 21.6001C18.0954 21.389 17.9657 21.1972 17.8021 21.0356C17.6386 20.874 17.4444 20.7459 17.2308 20.6584C17.0171 20.571 16.7881 20.526 16.5568 20.526H14.4168C14.4058 20.526 14.3952 20.5304 14.3874 20.5383C14.3796 20.5462 14.3752 20.5569 14.3752 20.5681Z" fill="white"/>
<path d="M28.7929 17.6816C29.2729 17.6816 29.733 17.6816 30.1733 17.6816C30.1853 17.6817 30.197 17.6853 30.207 17.6921C30.2171 17.6988 30.225 17.7084 30.2298 17.7197L35.7602 31.7474C35.7623 31.7528 35.763 31.7587 35.7624 31.7645C35.7618 31.7702 35.7597 31.7758 35.7565 31.7806C35.7533 31.7854 35.749 31.7894 35.7439 31.7922C35.7389 31.7949 35.7332 31.7964 35.7275 31.7965H32.7595C32.7475 31.7965 32.7357 31.7928 32.7256 31.7859C32.7156 31.7789 32.7077 31.769 32.703 31.7574L31.3633 28.3585C31.3539 28.3345 31.3375 28.3139 31.3163 28.2994C31.2951 28.285 31.27 28.2773 31.2443 28.2773C30.558 28.278 29.7416 28.2783 28.7949 28.2783C27.8475 28.2783 27.0307 28.2783 26.3445 28.2783C26.3188 28.2783 26.2937 28.286 26.2725 28.3004C26.2513 28.3149 26.2349 28.3355 26.2255 28.3595L24.8868 31.7584C24.8821 31.77 24.8742 31.7799 24.8641 31.7869C24.8541 31.7938 24.8423 31.7975 24.8303 31.7975L21.8623 31.7985C21.8565 31.7984 21.8509 31.7969 21.8458 31.7942C21.8408 31.7914 21.8365 31.7874 21.8332 31.7826C21.83 31.7778 21.828 31.7722 21.8274 31.7665C21.8267 31.7607 21.8275 31.7548 21.8296 31.7494L27.356 17.7197C27.3608 17.7084 27.3687 17.6988 27.3788 17.6921C27.3888 17.6853 27.4005 17.6817 27.4125 17.6816C27.8528 17.6816 28.3129 17.6816 28.7929 17.6816ZM27.4115 25.3682C27.4095 25.3728 27.4087 25.3778 27.4092 25.3829C27.4096 25.3879 27.4113 25.3927 27.414 25.3969C27.4168 25.4011 27.4206 25.4045 27.425 25.4068C27.4294 25.4092 27.4343 25.4103 27.4393 25.4103L30.1366 25.4243C30.1414 25.4243 30.1462 25.4231 30.1505 25.4208C30.1548 25.4185 30.1585 25.4152 30.1612 25.4112C30.164 25.4071 30.1657 25.4025 30.1662 25.3976C30.1668 25.3927 30.1661 25.3878 30.1643 25.3832L28.8336 21.9301C28.8314 21.9245 28.8276 21.9196 28.8226 21.9161C28.8177 21.9127 28.8118 21.9109 28.8058 21.9109C28.7998 21.9109 28.7939 21.9127 28.789 21.9161C28.784 21.9196 28.7802 21.9245 28.778 21.9301L27.4115 25.3682Z" fill="white"/>
<path d="M41.3614 25.5166C41.1505 25.1866 40.6295 24.3659 39.7985 23.0542C39.7967 23.0506 39.7937 23.0478 39.79 23.0462C39.7864 23.0447 39.7823 23.0445 39.7785 23.0457C39.7747 23.0469 39.7714 23.0494 39.7693 23.0528C39.7671 23.0562 39.7662 23.0602 39.7668 23.0642V31.7716C39.7668 31.7796 39.7636 31.7872 39.7581 31.7928C39.7525 31.7985 39.7449 31.8016 39.737 31.8016H36.9584C36.9508 31.8016 36.9435 31.7986 36.9381 31.7931C36.9327 31.7877 36.9297 31.7803 36.9297 31.7726V17.7208C36.9297 17.7094 36.9342 17.6984 36.9422 17.6904C36.9502 17.6823 36.961 17.6777 36.9723 17.6777H39.7222C39.7326 17.6776 39.7428 17.68 39.752 17.6849C39.7612 17.6898 39.769 17.697 39.7747 17.7058C42.4085 21.8645 43.7297 23.9501 43.7383 23.9628C43.9492 24.2934 44.4702 25.1142 45.3012 26.4252C45.3032 26.4281 45.306 26.4303 45.3094 26.4316C45.3127 26.4328 45.3164 26.4329 45.3198 26.4319C45.3232 26.4309 45.3262 26.4288 45.3283 26.426C45.3305 26.4232 45.3318 26.4197 45.3319 26.4161V17.7088C45.3319 17.7008 45.335 17.6932 45.3406 17.6875C45.3462 17.6819 45.3538 17.6787 45.3617 17.6787H48.1402C48.1479 17.6787 48.1552 17.6818 48.1606 17.6873C48.166 17.6927 48.169 17.7001 48.169 17.7078V31.7596C48.169 31.771 48.1645 31.7819 48.1565 31.79C48.1485 31.7981 48.1377 31.8026 48.1264 31.8026H45.3765C45.3663 31.8027 45.3562 31.8001 45.3472 31.7952C45.3382 31.7903 45.3306 31.7832 45.325 31.7746C42.6905 27.6153 41.3693 25.5292 41.3614 25.5166Z" fill="white"/>
<path d="M50.835 17.723C50.835 17.716 50.8363 17.7091 50.839 17.7027C50.8416 17.6963 50.8455 17.6904 50.8504 17.6855C50.8552 17.6805 50.861 17.6766 50.8674 17.674C50.8738 17.6713 50.8806 17.6699 50.8875 17.6699H55.0009C56.8769 17.6699 58.676 18.413 60.0025 19.7358C61.3291 21.0586 62.0743 22.8527 62.0743 24.7234V24.7514C62.0743 26.6221 61.3291 28.4162 60.0025 29.7389C58.676 31.0617 56.8769 31.8048 55.0009 31.8048H50.8875C50.8806 31.8048 50.8738 31.8035 50.8674 31.8008C50.861 31.7981 50.8552 31.7942 50.8504 31.7893C50.8455 31.7843 50.8416 31.7785 50.839 31.7721C50.8363 31.7656 50.835 31.7587 50.835 31.7517V17.723ZM53.677 20.553L53.6631 28.9077C53.6631 28.916 53.6664 28.9239 53.6721 28.9297C53.6779 28.9355 53.6857 28.9388 53.6939 28.9388L54.9919 28.9408C56.1153 28.9427 57.1935 28.5037 57.9892 27.7203C58.7849 26.9369 59.2331 25.8733 59.2352 24.7634V24.7173C59.2362 24.1676 59.1276 23.6231 58.9156 23.1149C58.7036 22.6066 58.3924 22.1446 57.9996 21.7552C57.6069 21.3658 57.1403 21.0566 56.6267 20.8454C56.113 20.6341 55.5622 20.5249 55.0058 20.524L53.7078 20.5219C53.6996 20.5219 53.6918 20.5252 53.686 20.531C53.6803 20.5369 53.677 20.5448 53.677 20.553Z" fill="white"/>
</svg>
