<svg xmlns="http://www.w3.org/2000/svg" width="43" height="43" viewBox="0 0 43 43" fill="none">
  <path d="M37.7973 0C38.0004 0.0127731 38.128 0.0219083 38.18 0.0274055C40.7215 0.297095 42.7575 2.32874 42.9757 4.89322C42.9845 4.99605 42.9926 5.09896 43 5.20196V37.7917C42.9934 37.8959 42.9855 37.9999 42.9765 38.1039C42.7533 40.6902 40.6844 42.7521 38.1065 42.9762C38.0037 42.9853 37.9008 42.9932 37.7978 43H5.20463C5.12782 42.9945 5.05102 42.989 4.97422 42.9835C2.3627 42.796 0.251743 40.7217 0.0240102 38.107C0.0151175 38.0045 0.00711412 37.9018 0 37.799V5.2022C0.0627336 3.81737 0.563309 2.63231 1.50173 1.647C2.40538 0.698235 3.66191 0.11229 4.9781 0.017947C5.05248 0.0126114 5.12661 0.00662907 5.2005 0H37.7973ZM22.9326 7.14387C22.9326 6.95809 22.896 6.77414 22.8249 6.6025C22.7538 6.43087 22.6496 6.27492 22.5183 6.14355C22.3869 6.01219 22.2309 5.90799 22.0593 5.83689C21.8877 5.7658 21.7037 5.72921 21.5179 5.72921H21.4821C21.1069 5.72921 20.747 5.87825 20.4817 6.14355C20.2164 6.40885 20.0674 6.76868 20.0674 7.14387V27.9415C20.0674 28.3167 20.2164 28.6765 20.4817 28.9418C20.747 29.2071 21.1069 29.3562 21.4821 29.3562H21.5179C21.7037 29.3562 21.8877 29.3196 22.0593 29.2485C22.2309 29.1774 22.3869 29.0732 22.5183 28.9418C22.6496 28.8105 22.7538 28.6545 22.8249 28.4829C22.896 28.3112 22.9326 28.1273 22.9326 27.9415V7.14387ZM15.7657 7.8894C15.7657 7.51459 15.6168 7.15514 15.3518 6.89011C15.0868 6.62508 14.7273 6.47619 14.3525 6.47619H14.3142C13.9394 6.47619 13.5799 6.62508 13.3149 6.89011C13.0499 7.15514 12.901 7.51459 12.901 7.8894V27.0262C12.901 27.2118 12.9375 27.3956 13.0085 27.567C13.0796 27.7385 13.1837 27.8943 13.3149 28.0255C13.4461 28.1567 13.6019 28.2608 13.7734 28.3318C13.9448 28.4029 14.1286 28.4394 14.3142 28.4394H14.3525C14.5381 28.4394 14.7218 28.4029 14.8933 28.3318C15.0648 28.2608 15.2206 28.1567 15.3518 28.0255C15.483 27.8943 15.5871 27.7385 15.6581 27.567C15.7291 27.3956 15.7657 27.2118 15.7657 27.0262V7.8894ZM30.099 7.8894C30.099 7.51459 29.9501 7.15514 29.6851 6.89011C29.4201 6.62508 29.0606 6.47619 28.6858 6.47619H28.6475C28.2727 6.47619 27.9132 6.62508 27.6482 6.89011C27.3832 7.15514 27.2343 7.51459 27.2343 7.8894V27.0262C27.2343 27.2118 27.2709 27.3956 27.3419 27.567C27.4129 27.7385 27.517 27.8943 27.6482 28.0255C27.7794 28.1567 27.9352 28.2608 28.1067 28.3318C28.2782 28.4029 28.4619 28.4394 28.6475 28.4394H28.6858C28.8714 28.4394 29.0552 28.4029 29.2266 28.3318C29.3981 28.2608 29.5539 28.1567 29.6851 28.0255C29.8163 27.8943 29.9204 27.7385 29.9915 27.567C30.0625 27.3956 30.099 27.2118 30.099 27.0262V7.8894ZM5.73333 17.1959C5.73333 21.194 5.7335 23.2705 5.73382 23.4254C5.7343 23.6786 5.74594 23.8534 5.76874 23.9498C5.92178 24.5937 6.4939 25.0584 7.16691 25.0584C7.83968 25.0584 8.4118 24.5937 8.56483 23.9498C8.58763 23.8534 8.59927 23.6786 8.59976 23.4254C8.59992 23.2704 8.6 21.1938 8.6 17.1956C8.59984 13.1975 8.5996 11.121 8.59927 10.9661C8.59879 10.7129 8.58715 10.5381 8.56435 10.4417C8.41131 9.79784 7.83919 9.33316 7.16642 9.33316C6.49341 9.33316 5.92129 9.79784 5.7685 10.4417C5.74554 10.5381 5.73382 10.7129 5.73333 10.9661C5.73317 11.1211 5.73317 13.1977 5.73333 17.1959ZM34.4 17.1959C34.4 21.194 34.4002 23.2706 34.4005 23.4257C34.401 23.6789 34.4126 23.8536 34.4354 23.95C34.5884 24.5939 35.1606 25.0584 35.8333 25.0584C36.5063 25.0584 37.0785 24.5939 37.2315 23.9498C37.2543 23.8536 37.2659 23.6789 37.2664 23.4257C37.2666 23.2706 37.2667 21.194 37.2667 17.1959C37.2665 13.1976 37.2663 11.1209 37.2662 10.9658C37.2657 10.7127 37.254 10.538 37.231 10.4417C37.0782 9.7976 36.5059 9.33316 35.8331 9.33316C35.1603 9.33316 34.588 9.79784 34.4352 10.4417C34.4124 10.5381 34.4007 10.7129 34.4002 10.9661C34.3999 11.1211 34.3998 13.1977 34.4 17.1959ZM21.5022 37.2587C26.109 37.2591 30.7839 36.2488 34.8041 33.944C35.2621 33.6813 35.6949 33.4067 36.1023 33.1202C36.3359 32.9558 36.5456 32.7975 36.7314 32.6456C37.3227 32.1617 37.4529 31.3041 36.9941 30.683C36.5653 30.1027 35.811 29.9312 35.1669 30.2569C35.0978 30.2918 34.9696 30.3833 34.7822 30.5312C34.6569 30.63 34.5296 30.7234 34.4002 30.8113C33.7886 31.2272 33.1439 31.6046 32.4661 31.9434C29.0751 33.639 25.2808 34.3915 21.5027 34.391C17.7246 34.3905 13.9305 33.6373 10.5397 31.9408C9.86195 31.6019 9.21731 31.2244 8.60582 30.8084C8.47647 30.7205 8.34915 30.627 8.22384 30.5281C8.03645 30.3801 7.90823 30.2887 7.83919 30.2538C7.19529 29.9278 6.44103 30.0993 6.012 30.6794C5.55289 31.3005 5.68313 32.1581 6.27417 32.6422C6.45994 32.7942 6.66965 32.9524 6.90328 33.1168C7.31057 33.4035 7.74323 33.6782 8.20129 33.9409C12.2209 36.2468 16.8956 37.2582 21.5022 37.2587Z" fill="#262626"/>
</svg>
