<svg width="275" height="549" viewBox="0 0 275 549" fill="none" xmlns="http://www.w3.org/2000/svg">
<path d="M-5.5791 175.552L87.7983 175.599L41.1501 256.489L87.8793 175.646L134.608 256.489L87.9602 175.599L181.338 175.552L87.9602 175.505L134.608 94.6148L87.8793 175.459L41.1501 94.6148L87.7983 175.505L-5.5791 175.552Z" stroke="#FFFBF5" stroke-opacity="0.15" stroke-width="0.564703"/>
<path d="M-52.4502 94.517L40.9272 94.5637L-5.72101 175.454L41.0082 94.6104L87.7374 175.454L41.0891 94.5637L134.467 94.517L41.0891 94.4702L87.7374 13.5796L41.0082 94.4235L-5.72101 13.5796L40.9272 94.4702L-52.4502 94.517Z" stroke="#FFFBF5" stroke-opacity="0.15" stroke-width="0.564703"/>
<path d="M-145.908 94.517L-52.5308 94.5637L-99.179 175.454L-52.4498 94.6104L-5.72066 175.454L-52.3689 94.5637L41.0085 94.517L-52.3689 94.4702L-5.72066 13.5796L-52.4498 94.4235L-99.179 13.5796L-52.5308 94.4702L-145.908 94.517Z" stroke="#FFFBF5" stroke-opacity="0.15" stroke-width="0.564703"/>
<path d="M-145.908 256.302L-52.5308 256.349L-99.179 337.239L-52.4498 256.396L-5.72066 337.239L-52.3689 256.349L41.0085 256.302L-52.3689 256.255L-5.72066 175.365L-52.4498 256.209L-99.179 175.365L-52.5308 256.255L-145.908 256.302Z" stroke="#FFFBF5" stroke-opacity="0.15" stroke-width="0.564703"/>
<path d="M-52.4502 256.304L40.9272 256.351L-5.72101 337.241L41.0082 256.398L87.7374 337.241L41.0891 256.351L134.467 256.304L41.0891 256.257L87.7374 175.367L41.0082 256.211L-5.72101 175.367L40.9272 256.257L-52.4502 256.304Z" stroke="#FFFBF5" stroke-opacity="0.15" stroke-width="0.564703"/>
<path d="M-5.5791 337.193L87.7983 337.239L41.1501 418.13L87.8793 337.286L134.608 418.13L87.9602 337.239L181.338 337.193L87.9602 337.146L134.608 256.255L87.8793 337.099L41.1501 256.255L87.7983 337.146L-5.5791 337.193Z" stroke="#FFFBF5" stroke-opacity="0.15" stroke-width="0.564703"/>
<path d="M-52.4502 256.16L40.9272 256.206L-5.72101 337.097L41.0082 256.253L87.7374 337.097L41.0891 256.206L134.467 256.16L41.0891 256.113L87.7374 175.222L41.0082 256.066L-5.72101 175.222L40.9272 256.113L-52.4502 256.16Z" stroke="#FFFBF5" stroke-opacity="0.15" stroke-width="0.564703"/>
<path d="M-145.908 256.158L-52.5308 256.204L-99.179 337.095L-52.4498 256.251L-5.72066 337.095L-52.3689 256.204L41.0085 256.158L-52.3689 256.111L-5.72066 175.22L-52.4498 256.064L-99.179 175.22L-52.5308 256.111L-145.908 256.158Z" stroke="#FFFBF5" stroke-opacity="0.15" stroke-width="0.564703"/>
<path d="M-145.907 417.945L-52.5298 417.991L-99.178 498.882L-52.4489 418.038L-5.71968 498.882L-52.3679 417.991L41.0095 417.945L-52.3679 417.898L-5.71968 337.007L-52.4489 417.851L-99.178 337.007L-52.5298 417.898L-145.907 417.945Z" stroke="#FFFBF5" stroke-opacity="0.15" stroke-width="0.564703"/>
<path d="M-52.4502 417.945L40.9272 417.991L-5.72101 498.882L41.0082 418.038L87.7374 498.882L41.0891 417.991L134.467 417.945L41.0891 417.898L87.7374 337.007L41.0082 417.851L-5.72101 337.007L40.9272 417.898L-52.4502 417.945Z" stroke="#FFFBF5" stroke-opacity="0.15" stroke-width="0.564703"/>
<path d="M87.5908 498.833L180.968 498.88L134.32 579.771L181.049 498.927L227.778 579.771L181.13 498.88L274.508 498.833L181.13 498.787L227.778 417.896L181.049 498.74L134.32 417.896L180.968 498.787L87.5908 498.833Z" stroke="#FFFBF5" stroke-opacity="0.15" stroke-width="0.564703"/>
<path d="M40.7197 417.8L134.097 417.847L87.4489 498.737L134.178 417.894L180.907 498.737L134.259 417.847L227.636 417.8L134.259 417.753L180.907 336.863L134.178 417.707L87.4489 336.863L134.097 417.753L40.7197 417.8Z" stroke="#FFFBF5" stroke-opacity="0.15" stroke-width="0.564703"/>
<path d="M-52.7383 417.8L40.6391 417.847L-6.0091 498.737L40.7201 417.894L87.4493 498.737L40.801 417.847L134.178 417.8L40.801 417.753L87.4493 336.863L40.7201 417.707L-6.0091 336.863L40.6391 417.753L-52.7383 417.8Z" stroke="#FFFBF5" stroke-opacity="0.15" stroke-width="0.564703"/>
<path d="M-99.3262 498.835L-5.94875 498.882L-52.597 579.773L-5.86781 498.929L40.8614 579.773L-5.78687 498.882L87.5906 498.835L-5.78687 498.789L40.8614 417.898L-5.86781 498.742L-52.597 417.898L-5.94875 498.789L-99.3262 498.835Z" stroke="#FFFBF5" stroke-opacity="0.15" stroke-width="0.564703"/>
<path d="M-52.7383 579.587L40.6391 579.634L-6.0091 660.525L40.7201 579.681L87.4493 660.525L40.801 579.634L134.178 579.587L40.801 579.541L87.4493 498.65L40.7201 579.494L-6.0091 498.65L40.6391 579.541L-52.7383 579.587Z" stroke="#FFFBF5" stroke-opacity="0.15" stroke-width="0.564703"/>
<path d="M40.7197 579.587L134.097 579.634L87.4489 660.525L134.178 579.681L180.907 660.525L134.259 579.634L227.636 579.587L134.259 579.541L180.907 498.65L134.178 579.494L87.4489 498.65L134.097 579.541L40.7197 579.587Z" stroke="#FFFBF5" stroke-opacity="0.15" stroke-width="0.564703"/>
</svg>
